<?xml version="1.0" encoding="UTF-8"?>
<svg xmlns="http://www.w3.org/2000/svg" viewBox="0 0 294.37 294.37">
  <defs>
    <style>
      .cls-1 {
        fill: #fff;
      }

      .cls-2 {
        fill: #2673b9;
      }
    </style>
  </defs>
  <g id="Capa_1">
    <g id="Capa_2">
      <rect width="294.37" height="294.37" rx="44.65" ry="44.65"/>
    </g>
    <polygon class="cls-2" points="51.9 147.18 .47 193.78 .47 100.59 51.9 147.18 51.9 147.18"/>
  </g>
  <g id="Capa_3">
    <path class="cls-1" d="M184.11,188.02h-73.55l-7.38,18.46h7.38c7.29,0,12.48,1.4,15.58,4.21,3.1,2.81,4.65,6.48,4.65,11s-1.55,8.05-4.65,10.86c-3.1,2.81-8.3,4.21-15.58,4.21h-40.76c-7.29,0-12.48-1.4-15.58-4.21-3.1-2.81-4.65-6.47-4.65-11s1.62-8.22,4.87-11.08c3.25-2.85,8.61-4.18,16.1-3.99l47.56-118.45h-19.79c-7.29,0-12.48-1.4-15.58-4.21s-4.65-6.47-4.65-11,1.55-8.2,4.65-11c3.1-2.81,8.29-4.21,15.58-4.21l65.43.15,60.26,148.73c7.09,0,11.76.79,14.03,2.36,4.53,3.25,6.79,7.53,6.79,12.85,0,4.43-1.53,8.05-4.58,10.86-3.05,2.81-8.22,4.21-15.51,4.21h-40.76c-7.29,0-12.48-1.4-15.58-4.21-3.1-2.81-4.65-6.47-4.65-11s1.55-8.05,4.65-10.86c3.1-2.81,8.29-4.21,15.58-4.21h7.39l-7.24-18.46ZM171.55,157.74l-24.37-59.96-24.52,59.96h48.89Z"/>
  </g>
</svg>